<svg xmlns="http://www.w3.org/2000/svg" width="24" height="18" version="1.2"><style>.s0{fill:none;stroke:#000;stroke-linecap:round;stroke-linejoin:round;stroke-width:1.5}</style><path id="Layer" fill-rule="evenodd" d="M2 9.3v-.6c1.4-4.2 5.4-7.2 10-7.2s8.6 3 10 7.2q.1.3 0 .6c-1.4 4.2-5.4 7.2-10 7.2s-8.6-3-10-7.2z" class="s0"/><path fill-rule="evenodd" d="M15 9c0 .8-.3 1.6-.9 2.1-.5.6-1.3.9-2.1.9s-1.6-.3-2.1-.9C9.3 10.6 9 9.8 9 9s.3-1.6.9-2.1c.5-.6 1.3-.9 2.1-.9s1.6.3 2.1.9c.6.5.9 1.3.9 2.1z" class="s0"/></svg>